<svg version="1.1" xmlns="http://www.w3.org/2000/svg" xmlns:xlink="http://www.w3.org/1999/xlink" width="468" height="405"><defs/><g><g transform="translate(-38,-38) scale(1,1)"><rect fill="#fff5d8" stroke="none" x="48" y="192" width="176" height="117"/></g><g transform="translate(-38,-38) scale(1,1)"><path fill="none" stroke="#333333" d="M 48 192 L 224 192 L 224 309 L 48 309 L 48 192 Z Z" stroke-miterlimit="10"/></g><g transform="translate(-38,-38) scale(1,1)"><path fill="none" stroke="#333333" d="M 48 220 L 224 220" stroke-miterlimit="10"/></g><g transform="translate(-38,-38) scale(1,1)"><path fill="none" stroke="#333333" d="M 48 300 L 224 300" stroke-miterlimit="10"/></g><g transform="translate(-38,-38) scale(1,1)"><g><path fill="none" stroke="none"/><text fill="#333333" stroke="none" font-family="FuraCode Nerd Font Mono" font-size="16px" font-style="normal" font-weight="bold" text-decoration="none" x="116.79999923706055" y="214.5">User</text></g></g><g transform="translate(-38,-38) scale(1,1)"><g><path fill="none" stroke="none"/><text fill="#333333" stroke="none" font-family="FuraCode Nerd Font Mono" font-size="16px" font-style="normal" font-weight="normal" text-decoration="none" x="53" y="240.5">+uuid: string</text></g></g><g transform="translate(-38,-38) scale(1,1)"><g><path fill="none" stroke="none"/><text fill="#333333" stroke="none" font-family="FuraCode Nerd Font Mono" font-size="16px" font-style="normal" font-weight="normal" text-decoration="none" x="53" y="258.5">+username: string</text></g></g><g transform="translate(-38,-38) scale(1,1)"><g><path fill="none" stroke="none"/><text fill="#333333" stroke="none" font-family="FuraCode Nerd Font Mono" font-size="16px" font-style="normal" font-weight="normal" text-decoration="none" x="53" y="276.5">+email: string</text></g></g><g transform="translate(-38,-38) scale(1,1)"><g><path fill="none" stroke="none"/><text fill="#333333" stroke="none" font-family="FuraCode Nerd Font Mono" font-size="16px" font-style="normal" font-weight="normal" text-decoration="none" x="53" y="294.5">+password: string</text></g></g><g transform="translate(-38,-38) scale(1,1)"><rect fill="#fff5d8" stroke="none" x="328" y="352" width="144" height="81"/></g><g transform="translate(-38,-38) scale(1,1)"><path fill="none" stroke="#333333" d="M 328 352 L 472 352 L 472 433 L 328 433 L 328 352 Z Z" stroke-miterlimit="10"/></g><g transform="translate(-38,-38) scale(1,1)"><path fill="none" stroke="#333333" d="M 328 380 L 472 380" stroke-miterlimit="10"/></g><g transform="translate(-38,-38) scale(1,1)"><path fill="none" stroke="#333333" d="M 328 424 L 472 424" stroke-miterlimit="10"/></g><g transform="translate(-38,-38) scale(1,1)"><g><path fill="none" stroke="none"/><text fill="#333333" stroke="none" font-family="FuraCode Nerd Font Mono" font-size="16px" font-style="normal" font-weight="bold" text-decoration="none" x="366.4000015258789" y="374.5">Product</text></g></g><g transform="translate(-38,-38) scale(1,1)"><g><path fill="none" stroke="none"/><text fill="#333333" stroke="none" font-family="FuraCode Nerd Font Mono" font-size="16px" font-style="normal" font-weight="normal" text-decoration="none" x="333" y="400.5">+uuid: string</text></g></g><g transform="translate(-38,-38) scale(1,1)"><g><path fill="none" stroke="none"/><text fill="#333333" stroke="none" font-family="FuraCode Nerd Font Mono" font-size="16px" font-style="normal" font-weight="normal" text-decoration="none" x="333" y="418.5">+name: string</text></g></g><g transform="translate(-38,-38) scale(1,1)"><rect fill="#fff5d8" stroke="none" x="192" y="48" width="160" height="99"/></g><g transform="translate(-38,-38) scale(1,1)"><path fill="none" stroke="#333333" d="M 192 48 L 352 48 L 352 147 L 192 147 L 192 48 Z Z" stroke-miterlimit="10"/></g><g transform="translate(-38,-38) scale(1,1)"><path fill="none" stroke="#333333" d="M 192 76 L 352 76" stroke-miterlimit="10"/></g><g transform="translate(-38,-38) scale(1,1)"><path fill="none" stroke="#333333" d="M 192 138 L 352 138" stroke-miterlimit="10"/></g><g transform="translate(-38,-38) scale(1,1)"><g><path fill="none" stroke="none"/><text fill="#333333" stroke="none" font-family="FuraCode Nerd Font Mono" font-size="16px" font-style="normal" font-weight="bold" text-decoration="none" x="248" y="70.5">Order</text></g></g><g transform="translate(-38,-38) scale(1,1)"><g><path fill="none" stroke="none"/><text fill="#333333" stroke="none" font-family="FuraCode Nerd Font Mono" font-size="16px" font-style="normal" font-weight="normal" text-decoration="none" x="197" y="96.5">+uuid: string</text></g></g><g transform="translate(-38,-38) scale(1,1)"><g><path fill="none" stroke="none"/><text fill="#333333" stroke="none" font-family="FuraCode Nerd Font Mono" font-size="16px" font-style="normal" font-weight="normal" text-decoration="none" x="197" y="114.5">+customer: User</text></g></g><g transform="translate(-38,-38) scale(1,1)"><g><path fill="none" stroke="none"/><text fill="#333333" stroke="none" font-family="FuraCode Nerd Font Mono" font-size="16px" font-style="normal" font-weight="normal" text-decoration="none" x="197" y="132.5">+items: Array</text></g></g><g transform="translate(-38,-38) scale(1,1)"><rect fill="#fff5d8" stroke="none" x="304" y="192" width="192" height="99"/></g><g transform="translate(-38,-38) scale(1,1)"><path fill="none" stroke="#333333" d="M 304 192 L 496 192 L 496 291 L 304 291 L 304 192 Z Z" stroke-miterlimit="10"/></g><g transform="translate(-38,-38) scale(1,1)"><path fill="none" stroke="#333333" d="M 304 220 L 496 220" stroke-miterlimit="10"/></g><g transform="translate(-38,-38) scale(1,1)"><path fill="none" stroke="#333333" d="M 304 282 L 496 282" stroke-miterlimit="10"/></g><g transform="translate(-38,-38) scale(1,1)"><g><path fill="none" stroke="none"/><text fill="#333333" stroke="none" font-family="FuraCode Nerd Font Mono" font-size="16px" font-style="normal" font-weight="bold" text-decoration="none" x="356.8000030517578" y="214.5">OrderItem</text></g></g><g transform="translate(-38,-38) scale(1,1)"><g><path fill="none" stroke="none"/><text fill="#333333" stroke="none" font-family="FuraCode Nerd Font Mono" font-size="16px" font-style="normal" font-weight="normal" text-decoration="none" x="309" y="240.5">+product: Product</text></g></g><g transform="translate(-38,-38) scale(1,1)"><g><path fill="none" stroke="none"/><text fill="#333333" stroke="none" font-family="FuraCode Nerd Font Mono" font-size="16px" font-style="normal" font-weight="normal" text-decoration="none" x="309" y="258.5">+quantity: integer</text></g></g><g transform="translate(-38,-38) scale(1,1)"><g><path fill="none" stroke="none"/><text fill="#333333" stroke="none" font-family="FuraCode Nerd Font Mono" font-size="16px" font-style="normal" font-weight="normal" text-decoration="none" x="309" y="276.5">+price: double</text></g></g><g transform="translate(-38,-38) scale(1,1)"><path fill="none" stroke="#333333" d="M 352 96 L 400 96 L 400 192" stroke-miterlimit="10"/></g><g transform="translate(-38,-38) scale(1,1)"><path fill="#FFFFFF" stroke="none" d="M 395.790482243984 181.83732514237585 L 400 192 L 404.209517756016 181.83732514237585 L 400 170"/></g><g transform="translate(-38,-38) scale(1,1)"><path fill="none" stroke="#333333" d="M 395.790482243984 181.83732514237585 L 400 192 L 404.209517756016 181.83732514237585 L 400 170 L 395.790482243984 181.83732514237585" stroke-miterlimit="10"/></g><g transform="translate(-38,-38) scale(1,1)"><path fill="none" stroke="#333333" d="M 192 97 L 134 97 L 134 192" stroke-miterlimit="10"/></g><g transform="translate(-38,-38) scale(1,1)"><path fill="#333333" stroke="none" d="M 129.790482243984 181.83732514237585 L 134 192 L 138.209517756016 181.83732514237585 L 134 170"/></g><g transform="translate(-38,-38) scale(1,1)"><path fill="none" stroke="#333333" d="M 129.790482243984 181.83732514237585 L 134 192 L 138.209517756016 181.83732514237585 L 134 170 L 129.790482243984 181.83732514237585" stroke-miterlimit="10"/></g><g transform="translate(-38,-38) scale(1,1)"><path fill="none" stroke="#333333" d="M 400 291 L 400 352" stroke-miterlimit="10"/></g><g transform="translate(-38,-38) scale(1,1)"><path fill="#333333" stroke="none" d="M 395.790482243984 341.83732514237585 L 400 352 L 404.209517756016 341.83732514237585 L 400 330"/></g><g transform="translate(-38,-38) scale(1,1)"><path fill="none" stroke="#333333" d="M 395.790482243984 341.83732514237585 L 400 352 L 404.209517756016 341.83732514237585 L 400 330 L 395.790482243984 341.83732514237585" stroke-miterlimit="10"/></g><g transform="translate(-38,-38) scale(1,1)"><path fill="#d8f2ff" stroke="none" d="M 48 48 L 142.39999389648438 48 L 152.39999389648438 58 L 152.39999389648438 79 L 48 79 L 48 48"/></g><g transform="translate(-38,-38) scale(1,1)"><path fill="none" stroke="#333333" d="M 48 48 L 142.39999389648438 48 L 152.39999389648438 58 L 152.39999389648438 79 L 48 79 L 48 48 L 48 48" stroke-miterlimit="10"/></g><g transform="translate(-38,-38) scale(1,1)"><path fill="none" stroke="#333333" d="M 142.39999389648438 48 L 142.39999389648438 58 L 152.39999389648438 58 L 142.39999389648438 48" stroke-miterlimit="10"/></g><g transform="translate(-38,-38) scale(1,1)"><g><path fill="none" stroke="none"/><text fill="#333333" stroke="none" font-family="FuraCode Nerd Font Mono" font-size="16px" font-style="normal" font-weight="normal" text-decoration="none" x="53" y="69">Aggregate</text></g></g><g transform="translate(-38,-38) scale(1,1)"><path fill="none" stroke="#333333" d="M 153 64 L 192 64" stroke-miterlimit="10" stroke-dasharray="3"/></g><g transform="translate(-38,-38) scale(1,1)"><path fill="#d8f2ff" stroke="none" d="M 48 128 L 113.5999984741211 128 L 123.5999984741211 138 L 123.5999984741211 159 L 48 159 L 48 128"/></g><g transform="translate(-38,-38) scale(1,1)"><path fill="none" stroke="#333333" d="M 48 128 L 113.5999984741211 128 L 123.5999984741211 138 L 123.5999984741211 159 L 48 159 L 48 128 L 48 128" stroke-miterlimit="10"/></g><g transform="translate(-38,-38) scale(1,1)"><path fill="none" stroke="#333333" d="M 113.5999984741211 128 L 113.5999984741211 138 L 123.5999984741211 138 L 113.5999984741211 128" stroke-miterlimit="10"/></g><g transform="translate(-38,-38) scale(1,1)"><g><path fill="none" stroke="none"/><text fill="#333333" stroke="none" font-family="FuraCode Nerd Font Mono" font-size="16px" font-style="normal" font-weight="normal" text-decoration="none" x="53" y="149">Entity</text></g></g><g transform="translate(-38,-38) scale(1,1)"><path fill="none" stroke="#333333" d="M 88 160 L 88 192" stroke-miterlimit="10" stroke-dasharray="3"/></g><g transform="translate(-38,-38) scale(1,1)"><path fill="#d8f2ff" stroke="none" d="M 48 400 L 113.5999984741211 400 L 123.5999984741211 410 L 123.5999984741211 431 L 48 431 L 48 400"/></g><g transform="translate(-38,-38) scale(1,1)"><path fill="none" stroke="#333333" d="M 48 400 L 113.5999984741211 400 L 123.5999984741211 410 L 123.5999984741211 431 L 48 431 L 48 400 L 48 400" stroke-miterlimit="10"/></g><g transform="translate(-38,-38) scale(1,1)"><path fill="none" stroke="#333333" d="M 113.5999984741211 400 L 113.5999984741211 410 L 123.5999984741211 410 L 113.5999984741211 400" stroke-miterlimit="10"/></g><g transform="translate(-38,-38) scale(1,1)"><g><path fill="none" stroke="none"/><text fill="#333333" stroke="none" font-family="FuraCode Nerd Font Mono" font-size="16px" font-style="normal" font-weight="normal" text-decoration="none" x="53" y="421">Entity</text></g></g><g transform="translate(-38,-38) scale(1,1)"><path fill="none" stroke="#333333" d="M 328 416 L 125 416" stroke-miterlimit="10" stroke-dasharray="3"/></g><g transform="translate(-38,-38) scale(1,1)"><path fill="#d8f2ff" stroke="none" d="M 48 336 L 171.19998931884766 336 L 181.19998931884766 346 L 181.19998931884766 367 L 48 367 L 48 336"/></g><g transform="translate(-38,-38) scale(1,1)"><path fill="none" stroke="#333333" d="M 48 336 L 171.19998931884766 336 L 181.19998931884766 346 L 181.19998931884766 367 L 48 367 L 48 336 L 48 336" stroke-miterlimit="10"/></g><g transform="translate(-38,-38) scale(1,1)"><path fill="none" stroke="#333333" d="M 171.19998931884766 336 L 171.19998931884766 346 L 181.19998931884766 346 L 171.19998931884766 336" stroke-miterlimit="10"/></g><g transform="translate(-38,-38) scale(1,1)"><g><path fill="none" stroke="none"/><text fill="#333333" stroke="none" font-family="FuraCode Nerd Font Mono" font-size="16px" font-style="normal" font-weight="normal" text-decoration="none" x="53" y="357">Value-Object</text></g></g><g transform="translate(-38,-38) scale(1,1)"><path fill="none" stroke="#333333" d="M 304 240 L 272 240 L 272 352 L 182 352" stroke-miterlimit="10" stroke-dasharray="3"/></g></g></svg>