<svg xmlns="http://www.w3.org/2000/svg" width="31" height="30" viewBox="0 0 31 30">
    <path fill="#000" fill-rule="evenodd" d="M15.735 30c-8.284 0-15-6.716-15-15 0-8.284 6.716-15 15-15 8.284 0 15 6.716 15 15 0 8.284-6.716 15-15 15zM13.311 7.392h1.488l1.536-.864h-4.944c-.656 0-1.364.08-2.124.24-.76.16-1.484.52-2.172 1.08a4.448 4.448 0 0 0-1.152 1.524 4.091 4.091 0 0 0-.384 1.692c0 .464.088.924.264 1.38.176.456.432.86.768 1.212s.752.636 1.248.852c.496.216 1.064.324 1.704.324a6.154 6.154 0 0 0 .768-.048 5.74 5.74 0 0 0-.168.42 1.571 1.571 0 0 0-.072.516c0 .368.076.676.228.924.152.248.316.484.492.708-.272.016-.592.04-.96.072-.368.032-.76.088-1.176.168-.416.08-.836.188-1.26.324-.424.136-.82.316-1.188.54-.704.416-1.188.9-1.452 1.452-.264.552-.396 1.044-.396 1.476 0 .448.104.876.312 1.284.208.408.528.772.96 1.092.432.32.972.576 1.62.768.648.192 1.404.288 2.268.288 1.024 0 1.932-.132 2.724-.396.792-.264 1.452-.608 1.98-1.032a4.368 4.368 0 0 0 1.2-1.452 3.667 3.667 0 0 0 .408-1.656c0-.416-.056-.784-.168-1.104a3.388 3.388 0 0 0-.444-.864 4.546 4.546 0 0 0-.648-.72c-.248-.224-.5-.448-.756-.672l-.864-.672a6.124 6.124 0 0 1-.408-.396c-.144-.152-.216-.364-.216-.636s.072-.496.216-.672c.144-.176.296-.344.456-.504.256-.192.504-.396.744-.612.24-.216.456-.456.648-.72.192-.264.344-.564.456-.9.112-.336.168-.728.168-1.176 0-.448-.064-.848-.192-1.2a4.324 4.324 0 0 0-.456-.924 3.996 3.996 0 0 0-.552-.672 6.69 6.69 0 0 0-.504-.444zm-2.64 6.768a2.09 2.09 0 0 1-1.332-.444 3.748 3.748 0 0 1-.936-1.092 5.269 5.269 0 0 1-.552-1.392 5.77 5.77 0 0 1-.18-1.344c0-.32.036-.632.108-.936a2.08 2.08 0 0 1 .42-.84c.192-.24.44-.432.744-.576.304-.144.616-.216.936-.216.496 0 .932.148 1.308.444.376.296.692.668.948 1.116.256.448.448.928.576 1.44.128.512.192.984.192 1.416 0 .224-.032.504-.096.84-.064.336-.232.64-.504.912a2.327 2.327 0 0 1-.732.48 2.249 2.249 0 0 1-.9.192zm3.552 7.056c0 .752-.3 1.372-.9 1.86-.6.488-1.476.732-2.628.732-1.296 0-2.324-.272-3.084-.816-.76-.544-1.14-1.248-1.14-2.112 0-.432.084-.792.252-1.08a2.846 2.846 0 0 1 1.272-1.164c.232-.104.412-.18.54-.228a8.192 8.192 0 0 1 1.56-.324 11.752 11.752 0 0 1 .96-.06h.3c.072 0 .156.008.252.024.448.32.84.608 1.176.864.336.256.608.504.816.744.208.24.364.484.468.732.104.248.156.524.156.828zm13.464-10.104v-1.44h-4.536V5.184h-1.44v4.488h-4.56v1.44h4.56v4.56h1.44v-4.56h4.536z"/>
</svg>
