<svg xmlns="http://www.w3.org/2000/svg" width="47" height="54" viewBox="0 0 47 54">
    <path fill="#000000" fill-rule="evenodd" d="M23.5 29.187c-2.596 0-4.7-2.178-4.7-4.865 0-2.686 2.104-4.864 4.7-4.864s4.7 2.178 4.7 4.864c0 2.687-2.104 4.865-4.7 4.865zM47 24.322c0 .074-.005.146-.006.22 0 .018.006.035.006.054v24.409c0 .201-.023.397-.058.591C46.657 52 44.7 53.87 42.3 53.87c-.364 0-.713-.052-1.053-.133l-.034.002L22.18 48.45l.004-.022c-1.951-.592-3.385-2.437-3.385-4.648 0-2.686 2.104-4.864 4.7-4.864 7.787 0 14.1-6.534 14.1-14.594 0-8.06-6.313-14.593-14.1-14.593S9.4 16.263 9.4 24.322v24.683c0 2.686-2.104 4.864-4.7 4.864S0 51.691 0 49.005V24.596c0-.019.005-.036.006-.055-.001-.073-.006-.145-.006-.219C0 10.89 10.521 0 23.5 0S47 10.89 47 24.322z"/>
</svg>
