<svg id="Layer_1" data-name="Layer 1" xmlns="http://www.w3.org/2000/svg" viewBox="0 0 195.93 58.01" width="195px" height="60px" ><title>pindify_logo</title><path fill="#ffffff"  d="M25.79,32a5.14,5.14,0,1,0-5-5.13A5.09,5.09,0,0,0,25.79,32Zm25.47-5.14c0-.08,0-.22,0-.3C51.25,12.09,39.91.28,25.79.28S.33,12.09.33,26.56c0,.08,0,.22,0,.3V53.13a5,5,0,1,0,10.07,0V26.56a15.64,15.64,0,0,1,15.4-15.79c8.47,0,15.38,7.19,15.38,15.87A15.48,15.48,0,0,1,25.79,42.26a5,5,0,0,0-5,5.13,5.3,5.3,0,0,0,3.6,5.13v0l20.71,5.7h0a4.79,4.79,0,0,0,1.12,0,5.06,5.06,0,0,0,5.08-4.48,3.9,3.9,0,0,0,0-.65Zm21.81.76h5.39a9.87,9.87,0,0,0,6.49-1.9q2.27-1.9,2.27-6.49,0-4.2-2.29-6.21a9,9,0,0,0-6.13-2H67.68V36.93h5.38Zm0-12.09h4.88a4.36,4.36,0,0,1,2.88.86,3.57,3.57,0,0,1,1,2.88,3.8,3.8,0,0,1-1,3,4.13,4.13,0,0,1-2.88.93H73.06Zm24.64,2.25H92.62V36.93h5.08Zm0-6.91H92.62v4.62h5.08Zm18.84,26.07h5.13V24q0-3.6-1.88-5.16a7.34,7.34,0,0,0-4.84-1.56,6.3,6.3,0,0,0-3.9,1.16,8.49,8.49,0,0,0-1.82,2.13V17.81h-4.85V36.93h5V26.56a7.48,7.48,0,0,1,.49-2.92,3.46,3.46,0,0,1,3.47-2.16A2.82,2.82,0,0,1,116.13,23a5.36,5.36,0,0,1,.4,2.32ZM140.76,20.2a6.08,6.08,0,0,0-2.2-2.12,6.17,6.17,0,0,0-3.09-.76,7.34,7.34,0,0,0-6,2.81,12,12,0,0,0-2.26,7.72,10.43,10.43,0,0,0,2.29,7,7.11,7.11,0,0,0,5.65,2.72,6.85,6.85,0,0,0,3.41-.77A7.06,7.06,0,0,0,141,34.28v2.65h4.87V11.06h-5.08Zm-1,11.53a3.7,3.7,0,0,1-3.23,1.58,3.53,3.53,0,0,1-3.17-1.59,7.63,7.63,0,0,1-1-4.25,7.7,7.7,0,0,1,1-4.12,3.52,3.52,0,0,1,3.22-1.66,3.82,3.82,0,0,1,2.53.91q1.77,1.51,1.77,5A7,7,0,0,1,139.79,31.73Zm17.68-20.87h-5.08v4.62h5.08Zm0,6.91h-5.08V36.93h5.08Zm12.66-1.44a1.59,1.59,0,0,1,.38-1,1.63,1.63,0,0,1,1.37-.44q1,0,1.41.08V10.87l-1.05-.08-.86,0q-4.16,0-5.25,1.72-1,1.16-1,4.24V18h-2.74v3.53h2.81V36.93h5V21.48h3.29V18h-3.29Zm16.55,27q1.11-1.31,3-6.76l6.56-18.84h-5.32l-4,14.13L182.8,17.77h-5.57l7,20a3,3,0,0,1-.33,1.16,2.71,2.71,0,0,1-.82,1.25,2.53,2.53,0,0,1-1.12.4,7.9,7.9,0,0,1-1.41.05l-.63,0v4l1.21.06h1.07Q185.57,44.69,186.68,43.38Zm-117,7.38L67,57.93h1l.78-2.15h2.81l.75,2.15h1.06l-2.6-7.17ZM69,55l1.15-3.17L71.28,55ZM81,57.33a3,3,0,0,1-.07-.61l0-1a1.62,1.62,0,0,0-.24-.9,1.47,1.47,0,0,0-.63-.45,1.76,1.76,0,0,0,1-1.71A1.7,1.7,0,0,0,80,51a3.2,3.2,0,0,0-1.33-.24H75.44v7.17h1V54.86h2.15a2,2,0,0,1,.85.13,1,1,0,0,1,.51.94l.06,1.2a4.58,4.58,0,0,0,0,.57.89.89,0,0,0,.08.24h1.19v-.16A.6.6,0,0,1,81,57.33Zm-1.33-3.56a1.79,1.79,0,0,1-1.05.27H76.41V51.6h2.31a1.73,1.73,0,0,1,.77.15,1.07,1.07,0,0,1,.54,1A1.13,1.13,0,0,1,79.65,53.77Zm3.3-2.16h2.42v6.32h1V51.62h2.42v-.85H82.95Zm16.62,4.26a5.36,5.36,0,0,0,.33-1.32h-.83q-.05.35-.1.54t-.18.58l-1.3-1.56a4.07,4.07,0,0,0,.85-.7,1.82,1.82,0,0,0,.43-1.21,1.4,1.4,0,0,0-.42-1,1.56,1.56,0,0,0-1.16-.42,1.71,1.71,0,0,0-1.25.46,1.54,1.54,0,0,0-.47,1.15,1.73,1.73,0,0,0,.15.69,3.68,3.68,0,0,0,.61.88,5.38,5.38,0,0,0-1.12.83,2,2,0,0,0-.49,1.36,2.06,2.06,0,0,0,.51,1.36,2,2,0,0,0,1.62.6,2.52,2.52,0,0,0,1.33-.35,3.52,3.52,0,0,0,.73-.63l.67.82h1.13l-1.27-1.55Q99.32,56.51,99.56,55.88Zm-3.15-4a.79.79,0,0,1,.75-.36.72.72,0,0,1,.56.23.78.78,0,0,1,.21.55,1.1,1.1,0,0,1-.28.74,3.69,3.69,0,0,1-.63.53,5.27,5.27,0,0,1-.55-.71,1.09,1.09,0,0,1-.16-.57A.8.8,0,0,1,96.42,51.86Zm1.3,5.22a1.68,1.68,0,0,1-.93.25A1.46,1.46,0,0,1,95.9,57a1,1,0,0,1-.42-.88,1.31,1.31,0,0,1,.32-.89,4.91,4.91,0,0,1,.89-.7l1.61,2A2,2,0,0,1,97.72,57.08Zm12.58-.25-2.06-6.06h-1.39v7.17h.93V53.7q0-.25,0-.79t0-.8v-.22l2.07,6h1l2-6q0,.58,0,1.09t0,.73v4.23h.93V50.76h-1.38Zm7.07-2.18h3.93v-.83h-3.93V51.64h4.26v-.88h-5.2v7.17h5.28v-.85h-4.33Zm9.49-3.89H124v7.17h2.86a2.61,2.61,0,0,0,2.57-1.63,4.89,4.89,0,0,0,.42-2.07,3.91,3.91,0,0,0-.72-2.43A2.69,2.69,0,0,0,126.85,50.76Zm1.91,4.39a3,3,0,0,1-.41,1.11,1.75,1.75,0,0,1-.91.73,2.57,2.57,0,0,1-.79.1H125V51.6h1.68a1.89,1.89,0,0,1,1.67.74,3.56,3.56,0,0,1,.52,2.07A4.35,4.35,0,0,1,128.77,55.16Zm3.6,2.78h1V50.76h-1Zm5.74-7.17-2.7,7.17h1l.78-2.15H140l.75,2.15h1.06l-2.6-7.17ZM137.46,55l1.15-3.17,1.1,3.17Zm13.92,1.83-2.06-6.06h-1.39v7.17h.93V53.7q0-.25,0-.79t0-.8v-.22l2.07,6h1l2-6q0,.58,0,1.09t0,.73v4.23h.93V50.76h-1.38Zm8.14-6.06-2.7,7.17h1l.78-2.15h2.81l.75,2.15h1.06l-2.6-7.17ZM158.88,55,160,51.83l1.1,3.17Zm11.95,2.34a3,3,0,0,1-.07-.61l0-1a1.61,1.61,0,0,0-.24-.9,1.47,1.47,0,0,0-.63-.45,1.76,1.76,0,0,0,1-1.71,1.7,1.7,0,0,0-1-1.69,3.2,3.2,0,0,0-1.33-.24h-3.26v7.17h1V54.86h2.15a2,2,0,0,1,.85.13,1,1,0,0,1,.51.94l.06,1.2a4.58,4.58,0,0,0,0,.57.89.89,0,0,0,.08.24h1.19v-.16A.6.6,0,0,1,170.83,57.33Zm-1.33-3.56a1.79,1.79,0,0,1-1.05.27h-2.18V51.6h2.31a1.73,1.73,0,0,1,.77.15,1.07,1.07,0,0,1,.54,1A1.13,1.13,0,0,1,169.49,53.77Zm9.87-3H178l-3.59,3.51V50.76h-.95v7.17h.95v-2.5l1.17-1.1,2.57,3.6h1.27l-3.13-4.28Zm3,3.89h3.93v-.83h-3.93V51.64h4.26v-.88h-5.2v7.17h5.28v-.85h-4.33Zm6.22-3H191v6.32h1V51.62h2.42v-.85h-5.81Z" transform="translate(-0.33 -0.28)"/></svg>
