<svg xmlns="http://www.w3.org/2000/svg" width="31" height="30" viewBox="0 0 31 30">
    <path fill="#000" fill-rule="evenodd" d="M15.934 30c-8.285 0-15-6.716-15-15 0-8.284 6.715-15 15-15 8.284 0 15 6.716 15 15 0 8.284-6.716 15-15 15zm-4.41-18.842C8.64 9.702 7.94 8.387 7.94 8.387s-.448.784-.252 2.24c.196 1.456 1.574 3.329 1.574 3.329l-1.658-.67s.084.925.728 1.877 2.912 2.156 2.912 2.156l-2.156.028s.196.448.98 1.204 2.968 1.428 2.968 1.428-1.536 1.075-2.604 1.484c-1.068.408-2.744.504-2.744.504s2.496 1.553 6.328 1.176c3.833-.377 6.47-2.168 8.512-5.152 2.042-2.985 1.848-6.86 1.848-6.86s.224-.257.766-.755c.543-.497.71-.741.71-.741l-1.355.143.88-1.57s-.538.244-.909.38c-.37.137-.869.274-.869.274s-1.965-2.408-4.821-.98-1.932 4.648-1.932 4.648-2.438.084-5.322-1.372z"/>
</svg>
